<?xml version="1.0" encoding="UTF-8"?>
<!DOCTYPE svg PUBLIC "-//W3C//DTD SVG 1.1//EN" "http://www.w3.org/Graphics/SVG/1.1/DTD/svg11.dtd">
<svg xmlns="http://www.w3.org/2000/svg" version="1.1" width="1352px" height="1064px" style="shape-rendering:geometricPrecision; text-rendering:geometricPrecision; image-rendering:optimizeQuality; fill-rule:evenodd; clip-rule:evenodd" xmlns:xlink="http://www.w3.org/1999/xlink">
<g><path style="opacity:0.997" fill="#fefefe" d="M -0.5,-0.5 C -0.166667,-0.5 0.166667,-0.5 0.5,-0.5C 193.074,201.911 385.907,404.245 579,606.5C 579.5,404.167 579.667,201.834 579.5,-0.5C 579.833,-0.5 580.167,-0.5 580.5,-0.5C 774.711,204.063 969.044,408.563 1163.5,613C 1164.45,613.483 1165.45,613.649 1166.5,613.5C 1166.5,409.5 1166.5,205.5 1166.5,1.5C 1228.17,1.5 1289.83,1.5 1351.5,1.5C 1351.5,355.5 1351.5,709.5 1351.5,1063.5C 1351.17,1063.5 1350.83,1063.5 1350.5,1063.5C 1162.2,864.703 973.704,666.036 785,467.5C 779.167,461.667 773.333,455.833 767.5,450C 766.552,449.517 765.552,449.351 764.5,449.5C 764.5,654.167 764.5,858.833 764.5,1063.5C 764.167,1063.5 763.833,1063.5 763.5,1063.5C 569.192,858.525 374.526,653.858 179.5,449.5C 178.5,649.166 178.167,848.832 178.5,1048.5C 118.833,1048.5 59.1667,1048.5 -0.5,1048.5C -0.5,698.833 -0.5,349.167 -0.5,-0.5 Z"/></g>
</svg>
