<?xml version="1.0" encoding="UTF-8"?>
<!DOCTYPE svg PUBLIC "-//W3C//DTD SVG 1.1//EN" "http://www.w3.org/Graphics/SVG/1.1/DTD/svg11.dtd">
<svg xmlns="http://www.w3.org/2000/svg" version="1.1" width="1352px" height="1064px" style="shape-rendering:geometricPrecision; text-rendering:geometricPrecision; image-rendering:optimizeQuality; fill-rule:evenodd; clip-rule:evenodd" xmlns:xlink="http://www.w3.org/1999/xlink">
<g><path style="opacity:0.999" fill="#c775fe" d="M -0.5,-0.5 C -0.166667,-0.5 0.166667,-0.5 0.5,-0.5C 3.8782,2.87615 6.8782,6.54282 9.5,10.5C 8.83333,10.5 8.16667,10.5 7.5,10.5C 5.53717,9.04009 3.70383,7.37342 2,5.5C 1.5,78.4992 1.33334,151.499 1.5,224.5C 60.1667,224.5 118.833,224.5 177.5,224.5C 177.168,279.003 177.501,333.336 178.5,387.5C 179.167,387.5 179.5,387.833 179.5,388.5C 177.451,391.55 174.784,393.883 171.5,395.5C 171.5,394.833 171.167,394.5 170.5,394.5C 171.833,393.067 173.333,391.733 175,390.5C 175.5,335.834 175.667,281.168 175.5,226.5C 117.5,226.5 59.5,226.5 1.5,226.5C 1.5,499.833 1.5,773.167 1.5,1046.5C 59.5,1046.5 117.5,1046.5 175.5,1046.5C 175.5,845.5 175.5,644.5 175.5,443.5C 175.5,442.833 175.833,442.5 176.5,442.5C 183.472,449.807 190.472,457.14 197.5,464.5C 196.833,464.833 196.167,465.167 195.5,465.5C 190.004,460.837 185.004,455.67 180.5,450C 179.552,449.517 178.552,449.351 177.5,449.5C 177.5,649.167 177.5,848.833 177.5,1048.5C 118.167,1048.5 58.8333,1048.5 -0.5,1048.5C -0.5,698.833 -0.5,349.167 -0.5,-0.5 Z"/></g>
<g><path style="opacity:0.997" fill="#c775fe" d="M 579.5,-0.5 C 579.833,-0.5 580.167,-0.5 580.5,-0.5C 583.878,2.87615 586.878,6.54282 589.5,10.5C 588.833,10.5 588.167,10.5 587.5,10.5C 585.537,9.04009 583.704,7.37342 582,5.5C 581.5,101.166 581.333,196.833 581.5,292.5C 642.5,292.5 703.5,292.5 764.5,292.5C 764.168,324.004 764.502,355.338 765.5,386.5C 766.492,386.328 767.158,386.662 767.5,387.5C 766.542,387.953 765.708,388.619 765,389.5C 764.333,407.5 764.333,425.5 765,443.5C 768.038,446.369 770.871,449.369 773.5,452.5C 772.833,452.833 772.167,453.167 771.5,453.5C 769.637,451.295 767.303,449.961 764.5,449.5C 764.5,654.167 764.5,858.833 764.5,1063.5C 764.167,1063.5 763.833,1063.5 763.5,1063.5C 759.79,1059.79 756.457,1055.79 753.5,1051.5C 754.167,1051.17 754.833,1050.83 755.5,1050.5C 757.461,1052.96 759.628,1055.3 762,1057.5C 762.5,976.167 762.667,894.834 762.5,813.5C 731.832,813.333 701.165,813.5 670.5,814C 667.631,817.038 664.631,819.871 661.5,822.5C 661.5,821.833 661.167,821.5 660.5,821.5C 662.628,818.87 664.961,816.37 667.5,814C 638.169,813.5 608.835,813.333 579.5,813.5C 579.667,745.833 579.5,678.166 579,610.5C 576.628,608.297 574.461,605.963 572.5,603.5C 572.5,602.5 572.5,601.5 572.5,600.5C 574.797,602.294 576.963,604.294 579,606.5C 579.5,404.167 579.667,201.834 579.5,-0.5 Z"/></g>
<g><path style="opacity:0.999" fill="#c775fe" d="M 1351.5,1.5 C 1351.5,355.5 1351.5,709.5 1351.5,1063.5C 1351.17,1063.5 1350.83,1063.5 1350.5,1063.5C 1346.79,1059.79 1343.46,1055.79 1340.5,1051.5C 1341.17,1051.17 1341.83,1050.83 1342.5,1050.5C 1344.46,1052.96 1346.63,1055.3 1349,1057.5C 1349.5,980.167 1349.67,902.834 1349.5,825.5C 1319.5,825.333 1289.5,825.5 1259.5,826C 1258.63,827.045 1257.63,827.878 1256.5,828.5C 1256.5,827.833 1256.17,827.5 1255.5,827.5C 1255.61,826.883 1255.94,826.383 1256.5,826C 1226.17,825.5 1195.84,825.333 1165.5,825.5C 1165.67,756.499 1165.5,687.499 1165,618.5C 1163.62,617.295 1162.46,615.962 1161.5,614.5C 1161.83,613.833 1162.17,613.167 1162.5,612.5C 1163.15,612.804 1163.82,613.137 1164.5,613.5C 1165.5,409.501 1165.83,205.501 1165.5,1.5C 1227.5,1.5 1289.5,1.5 1351.5,1.5 Z"/></g>
<g><path style="opacity:1" fill="#000000" d="M 1167.5,3.5 C 1228.17,3.5 1288.83,3.5 1349.5,3.5C 1349.5,276.833 1349.5,550.167 1349.5,823.5C 1288.83,823.5 1228.17,823.5 1167.5,823.5C 1167.5,550.167 1167.5,276.833 1167.5,3.5 Z"/></g>
<g><path style="opacity:1" fill="#000000" d="M 7.5,10.5 C 96.8118,104.813 186.145,199.146 275.5,293.5C 243.146,324.855 210.813,356.188 178.5,387.5C 177.501,333.336 177.168,279.003 177.5,224.5C 118.833,224.5 60.1667,224.5 1.5,224.5C 1.33334,151.499 1.5,78.4992 2,5.5C 3.70383,7.37342 5.53717,9.04009 7.5,10.5 Z"/></g>
<g><path style="opacity:1" fill="#000000" d="M 587.5,10.5 C 677.462,105.631 767.629,200.631 858,295.5C 858.667,296.5 858.667,297.5 858,298.5C 827.271,328.065 796.438,357.398 765.5,386.5C 764.502,355.338 764.168,324.004 764.5,292.5C 703.5,292.5 642.5,292.5 581.5,292.5C 581.333,196.833 581.5,101.166 582,5.5C 583.704,7.37342 585.537,9.04009 587.5,10.5 Z"/></g>
<g><path style="opacity:0.623" fill="#bd70f1" d="M 7.5,10.5 C 8.16667,10.5 8.83333,10.5 9.5,10.5C 93.165,97.3323 176.332,184.666 259,272.5C 364.378,381.043 468.878,490.377 572.5,600.5C 572.5,601.5 572.5,602.5 572.5,603.5C 474.335,501.501 376.668,399.001 279.5,296C 278.092,295.685 276.759,296.018 275.5,297C 243.631,327.704 211.631,358.204 179.5,388.5C 179.5,387.833 179.167,387.5 178.5,387.5C 210.813,356.188 243.146,324.855 275.5,293.5C 186.145,199.146 96.8118,104.813 7.5,10.5 Z"/></g>
<g><path style="opacity:1" fill="#000000" d="M 170.5,394.5 C 163.161,401.506 155.827,408.506 148.5,415.5C 157.056,425.292 166.056,434.626 175.5,443.5C 175.5,644.5 175.5,845.5 175.5,1046.5C 117.5,1046.5 59.5,1046.5 1.5,1046.5C 1.5,773.167 1.5,499.833 1.5,226.5C 59.5,226.5 117.5,226.5 175.5,226.5C 175.667,281.168 175.5,335.834 175,390.5C 173.333,391.733 171.833,393.067 170.5,394.5 Z"/></g>
<g><path style="opacity:1" fill="#000000" d="M 581.5,294.5 C 641.833,294.5 702.167,294.5 762.5,294.5C 762.5,466.833 762.5,639.167 762.5,811.5C 702.167,811.5 641.833,811.5 581.5,811.5C 581.5,639.167 581.5,466.833 581.5,294.5 Z"/></g>
<g><path style="opacity:1" fill="#000000" d="M 572.5,603.5 C 574.461,605.963 576.628,608.297 579,610.5C 579.5,678.166 579.667,745.833 579.5,813.5C 608.835,813.333 638.169,813.5 667.5,814C 664.961,816.37 662.628,818.87 660.5,821.5C 639.067,840.763 618.067,860.596 597.5,881C 596.5,881.667 595.5,881.667 594.5,881C 462.3,741.968 329.967,603.135 197.5,464.5C 190.472,457.14 183.472,449.807 176.5,442.5C 168.556,433.22 160.223,424.22 151.5,415.5C 158.521,409.146 165.188,402.479 171.5,395.5C 174.784,393.883 177.451,391.55 179.5,388.5C 211.631,358.204 243.631,327.704 275.5,297C 276.759,296.018 278.092,295.685 279.5,296C 376.668,399.001 474.335,501.501 572.5,603.5 Z"/></g>
<g><path style="opacity:1" fill="#000000" d="M 1161.5,614.5 C 1162.46,615.962 1163.62,617.295 1165,618.5C 1165.5,687.499 1165.67,756.499 1165.5,825.5C 1195.84,825.333 1226.17,825.5 1256.5,826C 1255.94,826.383 1255.61,826.883 1255.5,827.5C 1233.84,848.328 1212,868.995 1190,889.5C 1050.93,743.938 912.102,598.271 773.5,452.5C 770.871,449.369 768.038,446.369 765,443.5C 764.333,425.5 764.333,407.5 765,389.5C 765.708,388.619 766.542,387.953 767.5,387.5C 798.298,358.537 828.964,329.371 859.5,300C 860.167,299.333 860.833,299.333 861.5,300C 961.732,404.729 1061.73,509.562 1161.5,614.5 Z"/></g>
<g><path style="opacity:0.935" fill="#bd70f2" d="M 587.5,10.5 C 588.167,10.5 588.833,10.5 589.5,10.5C 780.953,210.742 971.953,411.408 1162.5,612.5C 1162.17,613.167 1161.83,613.833 1161.5,614.5C 1061.73,509.562 961.732,404.729 861.5,300C 860.833,299.333 860.167,299.333 859.5,300C 828.964,329.371 798.298,358.537 767.5,387.5C 767.158,386.662 766.492,386.328 765.5,386.5C 796.438,357.398 827.271,328.065 858,298.5C 858.667,297.5 858.667,296.5 858,295.5C 767.629,200.631 677.462,105.631 587.5,10.5 Z"/></g>
<g><path style="opacity:1" fill="#af67df" d="M 170.5,394.5 C 171.167,394.5 171.5,394.833 171.5,395.5C 165.188,402.479 158.521,409.146 151.5,415.5C 160.223,424.22 168.556,433.22 176.5,442.5C 175.833,442.5 175.5,442.833 175.5,443.5C 166.056,434.626 157.056,425.292 148.5,415.5C 155.827,408.506 163.161,401.506 170.5,394.5 Z"/></g>
<g><path style="opacity:0.908" fill="#bd70f1" d="M 773.5,452.5 C 912.102,598.271 1050.93,743.938 1190,889.5C 1212,868.995 1233.84,848.328 1255.5,827.5C 1256.17,827.5 1256.5,827.833 1256.5,828.5C 1235.16,849.842 1213.49,870.842 1191.5,891.5C 1241.49,944.823 1291.82,997.823 1342.5,1050.5C 1341.83,1050.83 1341.17,1051.17 1340.5,1051.5C 1206.9,911.395 1073.06,771.395 939,631.5C 932.293,624.462 925.96,617.128 920,609.5C 869.931,557.934 820.431,505.934 771.5,453.5C 772.167,453.167 772.833,452.833 773.5,452.5 Z"/></g>
<g><path style="opacity:0.918" fill="#bc6ff0" d="M 197.5,464.5 C 329.967,603.135 462.3,741.968 594.5,881C 595.5,881.667 596.5,881.667 597.5,881C 618.067,860.596 639.067,840.763 660.5,821.5C 661.167,821.5 661.5,821.833 661.5,822.5C 639.883,842.782 618.55,863.449 597.5,884.5C 649.823,940.157 702.49,995.49 755.5,1050.5C 754.833,1050.83 754.167,1051.17 753.5,1051.5C 566.433,857.101 380.433,661.768 195.5,465.5C 196.167,465.167 196.833,464.833 197.5,464.5 Z"/></g>
<g><path style="opacity:1" fill="#000000" d="M 755.5,1050.5 C 702.49,995.49 649.823,940.157 597.5,884.5C 618.55,863.449 639.883,842.782 661.5,822.5C 664.631,819.871 667.631,817.038 670.5,814C 701.165,813.5 731.832,813.333 762.5,813.5C 762.667,894.834 762.5,976.167 762,1057.5C 759.628,1055.3 757.461,1052.96 755.5,1050.5 Z"/></g>
<g><path style="opacity:1" fill="#000000" d="M 1342.5,1050.5 C 1291.82,997.823 1241.49,944.823 1191.5,891.5C 1213.49,870.842 1235.16,849.842 1256.5,828.5C 1257.63,827.878 1258.63,827.045 1259.5,826C 1289.5,825.5 1319.5,825.333 1349.5,825.5C 1349.67,902.834 1349.5,980.167 1349,1057.5C 1346.63,1055.3 1344.46,1052.96 1342.5,1050.5 Z"/></g>
</svg>
