<?xml version="1.0" encoding="UTF-8"?>
<!DOCTYPE svg PUBLIC "-//W3C//DTD SVG 1.1//EN" "http://www.w3.org/Graphics/SVG/1.1/DTD/svg11.dtd">
<svg xmlns="http://www.w3.org/2000/svg" version="1.1" width="1352px" height="1064px" style="shape-rendering:geometricPrecision; text-rendering:geometricPrecision; image-rendering:optimizeQuality; fill-rule:evenodd; clip-rule:evenodd" xmlns:xlink="http://www.w3.org/1999/xlink">
<g><path style="opacity:0.999" fill="#c776fe" d="M -0.5,-0.5 C -0.166667,-0.5 0.166667,-0.5 0.5,-0.5C 193.308,201.717 386.142,404.05 579,606.5C 579.5,404.167 579.667,201.834 579.5,-0.5C 579.833,-0.5 580.167,-0.5 580.5,-0.5C 774.629,204.131 968.963,408.631 1163.5,613C 1164.45,613.483 1165.45,613.649 1166.5,613.5C 1166.5,409.5 1166.5,205.5 1166.5,1.5C 1228.17,1.5 1289.83,1.5 1351.5,1.5C 1351.5,355.5 1351.5,709.5 1351.5,1063.5C 1351.17,1063.5 1350.83,1063.5 1350.5,1063.5C 1208.4,913.233 1065.74,763.4 922.5,614C 922.833,613.667 923.167,613.333 923.5,613C 871.5,558.667 819.5,504.333 767.5,450C 766.552,449.517 765.552,449.351 764.5,449.5C 764.5,654.167 764.5,858.833 764.5,1063.5C 764.167,1063.5 763.833,1063.5 763.5,1063.5C 569.371,858.869 375.037,654.369 180.5,450C 179.552,449.517 178.552,449.351 177.5,449.5C 177.5,648.833 177.5,848.167 177.5,1047.5C 118.167,1047.5 58.8333,1047.5 -0.5,1047.5C -0.5,698.167 -0.5,348.833 -0.5,-0.5 Z"/></g>
</svg>
