<?xml version="1.0" encoding="UTF-8"?>
<!DOCTYPE svg PUBLIC "-//W3C//DTD SVG 1.1//EN" "http://www.w3.org/Graphics/SVG/1.1/DTD/svg11.dtd">
<svg xmlns="http://www.w3.org/2000/svg" version="1.1" width="1352px" height="1065px" style="shape-rendering:geometricPrecision; text-rendering:geometricPrecision; image-rendering:optimizeQuality; fill-rule:evenodd; clip-rule:evenodd" xmlns:xlink="http://www.w3.org/1999/xlink">
<g><path style="opacity:0.998" fill="#f6b2e5" d="M -0.5,-0.5 C -0.166667,-0.5 0.166667,-0.5 0.5,-0.5C 89.1613,92.9952 177.661,186.662 266,280.5C 274.333,288.5 282.667,296.5 291,304.5C 386.635,405.803 482.635,506.803 579,607.5C 579.5,404.834 579.667,202.167 579.5,-0.5C 579.833,-0.5 580.167,-0.5 580.5,-0.5C 773.93,204.433 967.93,408.933 1162.5,613C 1163.45,613.483 1164.45,613.649 1165.5,613.5C 1165.5,409.5 1165.5,205.5 1165.5,1.5C 1227.5,1.5 1289.5,1.5 1351.5,1.5C 1351.5,355.833 1351.5,710.167 1351.5,1064.5C 1351.17,1064.5 1350.83,1064.5 1350.5,1064.5C 1156.84,860.672 963.339,656.672 770,452.5C 768.556,450.845 766.722,450.178 764.5,450.5C 764.5,655.167 764.5,859.833 764.5,1064.5C 764.167,1064.5 763.833,1064.5 763.5,1064.5C 569.371,859.869 375.037,655.369 180.5,451C 179.552,450.517 178.552,450.351 177.5,450.5C 177.5,649.833 177.5,849.167 177.5,1048.5C 118.167,1048.5 58.8333,1048.5 -0.5,1048.5C -0.5,698.833 -0.5,349.167 -0.5,-0.5 Z"/></g>
</svg>
