<?xml version="1.0" standalone="no"?>
<!DOCTYPE svg PUBLIC "-//W3C//DTD SVG 20010904//EN"
 "http://www.w3.org/TR/2001/REC-SVG-20010904/DTD/svg10.dtd">
<svg version="1.0" xmlns="http://www.w3.org/2000/svg"
 width="1352.000000pt" height="1064.000000pt" viewBox="0 0 1352.000000 1064.000000"
 preserveAspectRatio="xMidYMid meet">
<metadata>
Created by potrace 1.16, written by Peter Selinger 2001-2019
</metadata>
<g transform="translate(0.000000,1064.000000) scale(0.100000,-0.100000)"
fill="#000000" stroke="none">
<path d="M0 5397 l0 -5247 890 0 890 0 0 2996 c0 2603 2 2995 14 2992 13 -3
1888 -1968 4870 -5105 l981 -1032 3 3069 c2 2581 4 3070 16 3070 10 0 1304
-1354 1634 -1710 69 -75 4085 -4293 4183 -4395 l39 -40 0 5313 0 5312 -925 0
-925 0 0 -3060 c0 -2533 -2 -3060 -13 -3060 -14 0 -441 447 -3802 3983 l-2050
2156 -5 -3036 -5 -3036 -1455 1529 c-800 841 -1491 1565 -1536 1609 -44 44
-676 706 -1404 1470 -727 765 -1340 1408 -1361 1430 l-39 40 0 -5248z"/>
</g>
</svg>
